<svg width="256" height="256" xmlns="http://www.w3.org/2000/svg">
 <g>
  <title>background</title>
  <rect fill="none" id="canvas_background" height="258" width="258" y="-1" x="-1"/>
  <g display="none" overflow="visible" y="0" x="0" height="100%" width="100%" id="canvasGrid">
   <rect fill="url(#gridpattern)" stroke-width="0" y="0" x="0" height="100%" width="100%"/>
  </g>
 </g>
 <g>
  <title>Layer 1</title>
  <path stroke="null" id="svg_6" fill-rule="nonzero" fill="#7DD8B5" d="m128.179107,0.000007c-34.481631,0 -66.165434,13.143866 -90.602318,37.588575c-24.436875,24.448615 -37.576824,56.144158 -37.576824,90.641436c0,34.497278 13.139949,66.192831 37.576824,90.63753c20.519938,20.527761 46.169855,33.088587 75.192796,36.825532c11.398662,1.4713 28.870347,0.723904 41.32552,-1.756955c44.839419,-8.937357 83.147991,-43.681162 96.573596,-87.589277c14.08691,-46.064191 2.007388,-94.851862 -31.883368,-128.758266c-24.436885,-24.444709 -56.120688,-37.588575 -90.606225,-37.588575zm-1.166091,10.056486c18.551687,-0.168262 37.087707,4.034331 53.984175,12.502134c23.153401,11.606051 41.212033,29.668601 52.814178,52.833742c16.673422,33.299883 16.673422,72.375414 0,105.671391c-5.818683,11.621698 -11.617792,19.78819 -20.848627,29.382946c-19.537766,20.304715 -45.406812,32.681632 -74.175413,35.495097c-21.459055,2.097384 -43.602896,-2.109125 -63.4224,-12.040394c-11.613875,-5.82259 -19.780366,-11.621698 -29.371205,-20.856451c-36.993794,-35.628148 -46.522025,-91.568833 -23.442973,-137.652589c13.871697,-27.70035 37.702051,-48.65463 66.889348,-58.81677c12.181268,-4.24172 24.882968,-6.40563 37.572918,-6.519107zm0,0"/>
  <g stroke="null" id="svg_17">
   <path fill="#7DD8B5" stroke="null" id="svg_16" d="m193.956217,186.090676c0.071745,-0.130446 0.156535,-0.251108 0.220127,-0.381553c0.218496,-0.448407 0.39949,-0.919642 0.538088,-1.420227c0.006522,-0.019567 0.017936,-0.034242 0.021197,-0.05707l6.654356,-24.339519c1.25717,-4.596577 -1.454468,-9.346428 -6.054307,-10.605228c-4.593316,-1.260431 -9.349689,1.452838 -10.606858,6.052676l-1.156074,4.229699l-22.13825,-38.801045l15.75946,-8.992594c16.96119,-9.677433 22.888312,-31.34771 13.210879,-48.307269c-9.674172,-16.967712 -31.34934,-22.894834 -48.31053,-13.222293c-16.96282,9.682325 -22.885051,31.357493 -13.209248,48.313791l8.992594,15.762721l-18.873849,10.768285l-20.582686,-36.076363l4.125342,1.126724c0.764737,0.208713 1.529475,0.308178 2.284429,0.308178c3.792706,0 7.273973,-2.519231 8.32406,-6.357593c1.25717,-4.601469 -1.451207,-9.349689 -6.052676,-10.610119l-24.34115,-6.659248c-0.353834,-0.096204 -0.706037,-0.161426 -1.05824,-0.211974c-0.223388,-0.032611 -0.445146,-0.063592 -0.668534,-0.076637c-4.012833,-0.260891 -7.77945,2.312148 -8.881715,6.339656c-0.001631,0.001631 -0.001631,0.004892 -0.001631,0.008153l-6.654356,24.34115c-1.25717,4.601469 1.454468,9.349689 6.052676,10.606858c0.763107,0.208713 1.529475,0.308178 2.281168,0.308178c3.792706,0 7.275604,-2.524122 8.32406,-6.360854l1.187055,-4.337316l20.659323,36.210069l-10.15519,5.594486l-5.69069,3.248096c-8.216443,4.686258 -14.119106,12.289607 -16.613878,21.415907c-2.491511,9.129562 -1.28652,18.67655 3.403,26.894623c6.525541,11.44171 18.50534,17.856373 30.819405,17.856373c5.943428,0 11.968384,-1.496863 17.491125,-4.647125c16.96119,-9.679064 22.889943,-31.34934 13.21414,-48.31053l-8.906174,-15.614339l18.870587,-10.765024l22.141511,38.809198l-4.237852,-1.159335c-4.590055,-1.2588 -9.348058,1.452838 -10.608489,6.054307c-1.25717,4.599838 1.456099,9.346428 6.054307,10.605228l24.344411,6.657618c0.494063,0.133707 0.986495,0.207082 1.480558,0.254369c0.110879,0.009783 0.221758,0.016306 0.332636,0.022828c0.156535,0.006522 0.313069,0.02935 0.466343,0.02935c0.22828,0 0.443515,-0.034242 0.668534,-0.053809c0.169579,-0.013045 0.337528,-0.019567 0.507107,-0.037503c0.441884,-0.060331 0.873986,-0.163057 1.297934,-0.28698c0.079898,-0.026089 0.159796,-0.034242 0.236433,-0.060331c0.508738,-0.169579 0.989756,-0.388076 1.460991,-0.645706c0.034242,-0.021197 0.075006,-0.030981 0.105987,-0.047287c0.101095,-0.052178 0.174471,-0.133707 0.270675,-0.189146c0.327745,-0.203821 0.644075,-0.425579 0.939208,-0.666903c0.146751,-0.120662 0.283719,-0.242955 0.420687,-0.373401c0.251108,-0.238063 0.489171,-0.490802 0.712559,-0.758215c0.11577,-0.140229 0.238063,-0.278827 0.345681,-0.425579c0.213605,-0.306547 0.404381,-0.6294 0.583744,-0.960406zm-79.26038,2.91872c-8.69583,4.955302 -19.798382,1.920812 -24.753684,-6.761974c-2.40346,-4.211762 -3.023077,-9.105103 -1.743079,-13.783209c1.278367,-4.666692 4.299813,-8.568646 8.513206,-10.968845l5.508066,-3.150261l6.37879,-3.433981l3.959024,-2.261601l8.904543,15.611078c4.958564,8.690938 1.924073,19.791859 -6.766866,24.748792zm29.192096,-99.006584c-4.958564,-8.689308 -1.922442,-19.79349 6.763605,-24.753684c2.825778,-1.615895 5.912447,-2.379002 8.955091,-2.379002c6.310306,0 12.454294,3.292121 15.793702,9.150759c2.405091,4.211762 3.023077,9.103473 1.741449,13.776686c-1.276736,4.676475 -4.301444,8.570276 -8.511576,10.972106l-15.75946,8.992594l-8.98281,-15.75946z"/>
  </g>
 </g>
</svg>